<svg width="1340" height="59" viewBox="0 0 1340 59" fill="none" xmlns="http://www.w3.org/2000/svg">
<path d="M15.9922 7.38689L21.88 1.5L43.7132 1.5" stroke="#5B7E7D" stroke-width="3" stroke-linecap="round" stroke-linejoin="round"/>
<path d="M45.7854 7.38689L51.6732 1.5L73.5064 1.5" stroke="#5B7E7D" stroke-width="3" stroke-linecap="round" stroke-linejoin="round"/>
<path d="M75.5779 7.38689L81.4657 1.5L103.299 1.5" stroke="#5B7E7D" stroke-width="3" stroke-linecap="round" stroke-linejoin="round"/>
<path d="M105.371 7.38689L111.259 1.5L133.092 1.5" stroke="#5B7E7D" stroke-width="3" stroke-linecap="round" stroke-linejoin="round"/>
<path d="M135.164 7.38689L141.052 1.5L162.885 1.5" stroke="#5B7E7D" stroke-width="3" stroke-linecap="round" stroke-linejoin="round"/>
<path d="M164.957 7.38689L170.842 1.5L192.678 1.5" stroke="#5B7E7D" stroke-width="3" stroke-linecap="round" stroke-linejoin="round"/>
<path d="M194.75 7.38689L200.635 1.5L222.471 1.5" stroke="#5B7E7D" stroke-width="3" stroke-linecap="round" stroke-linejoin="round"/>
<path d="M224.543 7.38689L230.428 1.5L252.264 1.5" stroke="#5B7E7D" stroke-width="3" stroke-linecap="round" stroke-linejoin="round"/>
<path d="M254.336 7.38689L260.224 1.5L282.057 1.5" stroke="#5B7E7D" stroke-width="3" stroke-linecap="round" stroke-linejoin="round"/>
<path d="M284.129 7.38689L290.017 1.5L311.85 1.5" stroke="#5B7E7D" stroke-width="3" stroke-linecap="round" stroke-linejoin="round"/>
<path d="M313.922 7.38689L319.809 1.5L341.64 1.5" stroke="#5B7E7D" stroke-width="3" stroke-linecap="round" stroke-linejoin="round"/>
<path d="M492.545 7.38689L498.433 1.5L520.263 1.5" stroke="#5B7E7D" stroke-width="3" stroke-linecap="round" stroke-linejoin="round"/>
<path d="M671.167 7.38689L677.055 1.5L698.885 1.5" stroke="#5B7E7D" stroke-width="3" stroke-linecap="round" stroke-linejoin="round"/>
<path d="M849.79 7.38689L855.678 1.5L877.508 1.5" stroke="#5B7E7D" stroke-width="3" stroke-linecap="round" stroke-linejoin="round"/>
<path d="M343.715 7.38689L349.6 1.5L371.433 1.5" stroke="#5B7E7D" stroke-width="3" stroke-linecap="round" stroke-linejoin="round"/>
<path d="M522.337 7.38689L528.222 1.5L550.055 1.5" stroke="#5B7E7D" stroke-width="3" stroke-linecap="round" stroke-linejoin="round"/>
<path d="M700.96 7.38689L706.845 1.5L728.679 1.5" stroke="#5B7E7D" stroke-width="3" stroke-linecap="round" stroke-linejoin="round"/>
<path d="M879.583 7.38689L885.468 1.5L907.302 1.5" stroke="#5B7E7D" stroke-width="3" stroke-linecap="round" stroke-linejoin="round"/>
<path d="M1028.35 7.38689L1034.23 1.5L1056.07 1.5" stroke="#5B7E7D" stroke-width="3" stroke-linecap="round" stroke-linejoin="round"/>
<path d="M1177.12 7.38689L1183 1.5L1204.84 1.5" stroke="#5B7E7D" stroke-width="3" stroke-linecap="round" stroke-linejoin="round"/>
<path d="M373.505 7.38689L379.393 1.5L401.226 1.5" stroke="#5B7E7D" stroke-width="3" stroke-linecap="round" stroke-linejoin="round"/>
<path d="M552.128 7.38689L558.016 1.5L579.849 1.5" stroke="#5B7E7D" stroke-width="3" stroke-linecap="round" stroke-linejoin="round"/>
<path d="M730.751 7.38689L736.639 1.5L758.472 1.5" stroke="#5B7E7D" stroke-width="3" stroke-linecap="round" stroke-linejoin="round"/>
<path d="M909.373 7.38689L915.261 1.5L937.094 1.5" stroke="#5B7E7D" stroke-width="3" stroke-linecap="round" stroke-linejoin="round"/>
<path d="M1058.14 7.38689L1064.03 1.5L1085.86 1.5" stroke="#5B7E7D" stroke-width="3" stroke-linecap="round" stroke-linejoin="round"/>
<path d="M1206.91 7.38689L1212.8 1.5L1234.63 1.5" stroke="#5B7E7D" stroke-width="3" stroke-linecap="round" stroke-linejoin="round"/>
<path d="M403.298 7.38689L409.186 1.5L431.019 1.5" stroke="#5B7E7D" stroke-width="3" stroke-linecap="round" stroke-linejoin="round"/>
<path d="M581.921 7.38689L587.808 1.5L609.642 1.5" stroke="#5B7E7D" stroke-width="3" stroke-linecap="round" stroke-linejoin="round"/>
<path d="M760.544 7.38689L766.432 1.5L788.265 1.5" stroke="#5B7E7D" stroke-width="3" stroke-linecap="round" stroke-linejoin="round"/>
<path d="M939.166 7.38689L945.054 1.5L966.887 1.5" stroke="#5B7E7D" stroke-width="3" stroke-linecap="round" stroke-linejoin="round"/>
<path d="M1087.93 7.38689L1093.82 1.5L1115.65 1.5" stroke="#5B7E7D" stroke-width="3" stroke-linecap="round" stroke-linejoin="round"/>
<path d="M1236.7 7.38689L1242.59 1.5L1264.42 1.5" stroke="#5B7E7D" stroke-width="3" stroke-linecap="round" stroke-linejoin="round"/>
<path d="M433.091 7.38689L438.979 1.5L460.812 1.5" stroke="#5B7E7D" stroke-width="3" stroke-linecap="round" stroke-linejoin="round"/>
<path d="M611.714 7.38689L617.602 1.5L639.435 1.5" stroke="#5B7E7D" stroke-width="3" stroke-linecap="round" stroke-linejoin="round"/>
<path d="M790.337 7.38689L796.225 1.5L818.058 1.5" stroke="#5B7E7D" stroke-width="3" stroke-linecap="round" stroke-linejoin="round"/>
<path d="M968.959 7.38689L974.847 1.5L996.68 1.5" stroke="#5B7E7D" stroke-width="3" stroke-linecap="round" stroke-linejoin="round"/>
<path d="M1117.73 7.38689L1123.61 1.5L1145.45 1.5" stroke="#5B7E7D" stroke-width="3" stroke-linecap="round" stroke-linejoin="round"/>
<path d="M1266.49 7.38689L1272.38 1.5L1294.22 1.5" stroke="#5B7E7D" stroke-width="3" stroke-linecap="round" stroke-linejoin="round"/>
<path d="M462.884 7.38689L468.772 1.5L490.605 1.5" stroke="#5B7E7D" stroke-width="3" stroke-linecap="round" stroke-linejoin="round"/>
<path d="M641.507 7.38689L647.395 1.5L669.228 1.5" stroke="#5B7E7D" stroke-width="3" stroke-linecap="round" stroke-linejoin="round"/>
<path d="M820.13 7.38689L826.017 1.5L847.851 1.5" stroke="#5B7E7D" stroke-width="3" stroke-linecap="round" stroke-linejoin="round"/>
<path d="M998.752 7.38689L1004.64 1.5L1026.47 1.5" stroke="#5B7E7D" stroke-width="3" stroke-linecap="round" stroke-linejoin="round"/>
<path d="M1147.52 7.38689L1153.41 1.5L1175.24 1.5" stroke="#5B7E7D" stroke-width="3" stroke-linecap="round" stroke-linejoin="round"/>
<path d="M1296.29 7.38689L1302.17 1.5L1324.01 1.5" stroke="#5B7E7D" stroke-width="3" stroke-linecap="round" stroke-linejoin="round"/>
<path d="M15.9922 51.2637L21.88 57.1506L43.7132 57.1506" stroke="#5B7E7D" stroke-width="3" stroke-linecap="round" stroke-linejoin="round"/>
<path d="M45.7854 51.2637L51.6732 57.1506L73.5064 57.1506" stroke="#5B7E7D" stroke-width="3" stroke-linecap="round" stroke-linejoin="round"/>
<path d="M75.5779 51.2637L81.4657 57.1506L103.299 57.1506" stroke="#5B7E7D" stroke-width="3" stroke-linecap="round" stroke-linejoin="round"/>
<path d="M105.371 51.2637L111.259 57.1506L133.092 57.1506" stroke="#5B7E7D" stroke-width="3" stroke-linecap="round" stroke-linejoin="round"/>
<path d="M135.164 51.2637L141.052 57.1506L162.885 57.1506" stroke="#5B7E7D" stroke-width="3" stroke-linecap="round" stroke-linejoin="round"/>
<path d="M164.957 51.2637L170.842 57.1506L192.678 57.1506" stroke="#5B7E7D" stroke-width="3" stroke-linecap="round" stroke-linejoin="round"/>
<path d="M194.75 51.2637L200.635 57.1506L222.471 57.1506" stroke="#5B7E7D" stroke-width="3" stroke-linecap="round" stroke-linejoin="round"/>
<path d="M224.543 51.2637L230.428 57.1506L252.264 57.1506" stroke="#5B7E7D" stroke-width="3" stroke-linecap="round" stroke-linejoin="round"/>
<path d="M254.336 51.2637L260.224 57.1506L282.057 57.1506" stroke="#5B7E7D" stroke-width="3" stroke-linecap="round" stroke-linejoin="round"/>
<path d="M284.129 51.2637L290.017 57.1506L311.85 57.1506" stroke="#5B7E7D" stroke-width="3" stroke-linecap="round" stroke-linejoin="round"/>
<path d="M313.922 51.2637L319.809 57.1506L341.64 57.1506" stroke="#5B7E7D" stroke-width="3" stroke-linecap="round" stroke-linejoin="round"/>
<path d="M492.545 51.2637L498.433 57.1506L520.263 57.1506" stroke="#5B7E7D" stroke-width="3" stroke-linecap="round" stroke-linejoin="round"/>
<path d="M671.167 51.2637L677.055 57.1506L698.885 57.1506" stroke="#5B7E7D" stroke-width="3" stroke-linecap="round" stroke-linejoin="round"/>
<path d="M849.79 51.2637L855.678 57.1506L877.508 57.1506" stroke="#5B7E7D" stroke-width="3" stroke-linecap="round" stroke-linejoin="round"/>
<path d="M343.715 51.2637L349.6 57.1506L371.433 57.1506" stroke="#5B7E7D" stroke-width="3" stroke-linecap="round" stroke-linejoin="round"/>
<path d="M522.337 51.2637L528.222 57.1506L550.055 57.1506" stroke="#5B7E7D" stroke-width="3" stroke-linecap="round" stroke-linejoin="round"/>
<path d="M700.96 51.2637L706.845 57.1506L728.679 57.1506" stroke="#5B7E7D" stroke-width="3" stroke-linecap="round" stroke-linejoin="round"/>
<path d="M879.583 51.2637L885.468 57.1506L907.302 57.1506" stroke="#5B7E7D" stroke-width="3" stroke-linecap="round" stroke-linejoin="round"/>
<path d="M1028.35 51.2637L1034.23 57.1506L1056.07 57.1506" stroke="#5B7E7D" stroke-width="3" stroke-linecap="round" stroke-linejoin="round"/>
<path d="M1177.12 51.2637L1183 57.1506L1204.84 57.1506" stroke="#5B7E7D" stroke-width="3" stroke-linecap="round" stroke-linejoin="round"/>
<path d="M373.505 51.2637L379.393 57.1506L401.226 57.1506" stroke="#5B7E7D" stroke-width="3" stroke-linecap="round" stroke-linejoin="round"/>
<path d="M552.128 51.2637L558.016 57.1506L579.849 57.1506" stroke="#5B7E7D" stroke-width="3" stroke-linecap="round" stroke-linejoin="round"/>
<path d="M730.751 51.2637L736.639 57.1506L758.472 57.1506" stroke="#5B7E7D" stroke-width="3" stroke-linecap="round" stroke-linejoin="round"/>
<path d="M909.373 51.2637L915.261 57.1506L937.094 57.1506" stroke="#5B7E7D" stroke-width="3" stroke-linecap="round" stroke-linejoin="round"/>
<path d="M1058.14 51.2637L1064.03 57.1506L1085.86 57.1506" stroke="#5B7E7D" stroke-width="3" stroke-linecap="round" stroke-linejoin="round"/>
<path d="M1206.91 51.2637L1212.8 57.1506L1234.63 57.1506" stroke="#5B7E7D" stroke-width="3" stroke-linecap="round" stroke-linejoin="round"/>
<path d="M403.298 51.2637L409.186 57.1506L431.019 57.1506" stroke="#5B7E7D" stroke-width="3" stroke-linecap="round" stroke-linejoin="round"/>
<path d="M581.921 51.2637L587.808 57.1506L609.642 57.1506" stroke="#5B7E7D" stroke-width="3" stroke-linecap="round" stroke-linejoin="round"/>
<path d="M760.544 51.2637L766.432 57.1506L788.265 57.1506" stroke="#5B7E7D" stroke-width="3" stroke-linecap="round" stroke-linejoin="round"/>
<path d="M939.166 51.2637L945.054 57.1506L966.887 57.1506" stroke="#5B7E7D" stroke-width="3" stroke-linecap="round" stroke-linejoin="round"/>
<path d="M1087.93 51.2637L1093.82 57.1506L1115.65 57.1506" stroke="#5B7E7D" stroke-width="3" stroke-linecap="round" stroke-linejoin="round"/>
<path d="M1236.7 51.2637L1242.59 57.1506L1264.42 57.1506" stroke="#5B7E7D" stroke-width="3" stroke-linecap="round" stroke-linejoin="round"/>
<path d="M433.091 51.2637L438.979 57.1506L460.812 57.1506" stroke="#5B7E7D" stroke-width="3" stroke-linecap="round" stroke-linejoin="round"/>
<path d="M611.714 51.2637L617.602 57.1506L639.435 57.1506" stroke="#5B7E7D" stroke-width="3" stroke-linecap="round" stroke-linejoin="round"/>
<path d="M790.337 51.2637L796.225 57.1506L818.058 57.1506" stroke="#5B7E7D" stroke-width="3" stroke-linecap="round" stroke-linejoin="round"/>
<path d="M968.959 51.2637L974.847 57.1506L996.68 57.1506" stroke="#5B7E7D" stroke-width="3" stroke-linecap="round" stroke-linejoin="round"/>
<path d="M1117.73 51.2637L1123.61 57.1506L1145.45 57.1506" stroke="#5B7E7D" stroke-width="3" stroke-linecap="round" stroke-linejoin="round"/>
<path d="M1266.49 51.2637L1272.38 57.1506L1294.22 57.1506" stroke="#5B7E7D" stroke-width="3" stroke-linecap="round" stroke-linejoin="round"/>
<path d="M462.884 51.2637L468.772 57.1506L490.605 57.1506" stroke="#5B7E7D" stroke-width="3" stroke-linecap="round" stroke-linejoin="round"/>
<path d="M641.507 51.2637L647.395 57.1506L669.228 57.1506" stroke="#5B7E7D" stroke-width="3" stroke-linecap="round" stroke-linejoin="round"/>
<path d="M820.13 51.2637L826.017 57.1506L847.851 57.1506" stroke="#5B7E7D" stroke-width="3" stroke-linecap="round" stroke-linejoin="round"/>
<path d="M998.752 51.2637L1004.64 57.1506L1026.47 57.1506" stroke="#5B7E7D" stroke-width="3" stroke-linecap="round" stroke-linejoin="round"/>
<path d="M1147.52 51.2637L1153.41 57.1506L1175.24 57.1506" stroke="#5B7E7D" stroke-width="3" stroke-linecap="round" stroke-linejoin="round"/>
<path d="M1296.29 51.2637L1302.17 57.1506L1324.01 57.1506" stroke="#5B7E7D" stroke-width="3" stroke-linecap="round" stroke-linejoin="round"/>
</svg>
